<svg xmlns="http://www.w3.org/2000/svg" xmlns:xlink="http://www.w3.org/1999/xlink" width="2050" zoomAndPan="magnify" viewBox="0 0 1537.5 675.000002" height="900" preserveAspectRatio="xMidYMid meet" version="1.0"><defs><g/><clipPath id="b522dc39d7"><path d="M 0.53125 0.425781 L 714.683594 0.425781 L 714.683594 523.871094 L 0.53125 523.871094 Z M 0.53125 0.425781 " clip-rule="nonzero"/></clipPath><clipPath id="788d6566c2"><path d="M 118 57 L 714.683594 57 L 714.683594 467 L 118 467 Z M 118 57 " clip-rule="nonzero"/></clipPath><clipPath id="bcdb66a5dd"><path d="M 0.53125 0.425781 L 317 0.425781 L 317 523.566406 L 0.53125 523.566406 Z M 0.53125 0.425781 " clip-rule="nonzero"/></clipPath><clipPath id="deef411d06"><rect x="0" width="715" y="0" height="524"/></clipPath><clipPath id="e87cc3d53e"><rect x="0" width="1338" y="0" height="524"/></clipPath></defs><g transform="matrix(1, 0, 0, 1, 94, 75)"><g clip-path="url(#e87cc3d53e)"><g clip-path="url(#b522dc39d7)"><g transform="matrix(1, 0, 0, 1, -0.000000000000014211, -0.000000000000014211)"><g clip-path="url(#deef411d06)"><path fill="#07416b" d="M 328.128906 395.804688 C 325.476562 395.957031 322.8125 396.066406 320.121094 396.066406 C 246.0625 396.066406 186.023438 336.027344 186.023438 261.96875 C 186.023438 187.910156 246.0625 127.875 320.121094 127.875 C 322.8125 127.875 325.476562 127.980469 328.128906 128.132812 C 257.820312 132.304688 202.089844 190.613281 202.089844 261.96875 C 202.089844 333.324219 257.820312 391.636719 328.128906 395.804688 " fill-opacity="1" fill-rule="nonzero"/><g clip-path="url(#788d6566c2)"><path fill="#00adef" d="M 430.996094 146.25 C 402.695312 119.8125 364.71875 103.613281 322.941406 103.613281 C 236.902344 103.613281 166.894531 172.230469 164.644531 257.722656 C 164.605469 259.132812 164.585938 260.546875 164.585938 261.96875 C 164.585938 349.425781 235.484375 420.324219 322.941406 420.324219 C 364.71875 420.324219 402.695312 404.117188 430.996094 377.6875 L 582.9375 377.6875 L 478.175781 395.5625 C 440.613281 439.164062 385.007812 466.773438 322.941406 466.773438 C 209.828125 466.773438 118.136719 375.082031 118.136719 261.96875 C 118.136719 148.859375 209.828125 57.164062 322.941406 57.164062 C 385.007812 57.164062 440.613281 84.773438 478.175781 128.375 L 714.714844 146.25 L 430.996094 146.25 " fill-opacity="1" fill-rule="nonzero"/></g><path fill="#07416b" d="M 470.996094 419.3125 C 455.648438 439.65625 437.410156 457.695312 416.878906 472.792969 C 416.269531 472.539062 415.660156 472.269531 415.054688 471.976562 L 398.828125 464.261719 C 425.449219 454.273438 450.007812 439.066406 470.996094 419.3125 " fill-opacity="1" fill-rule="nonzero"/><g clip-path="url(#bcdb66a5dd)"><path fill="#07416b" d="M 106.871094 261.96875 C 106.871094 379.078125 200.53125 474.726562 316.878906 477.945312 L 302.410156 518.636719 C 302.175781 519.296875 301.902344 519.910156 301.648438 520.546875 C 288.742188 522.5 275.53125 523.523438 262.082031 523.523438 C 248.632812 523.523438 235.417969 522.5 222.515625 520.546875 C 222.261719 519.910156 221.984375 519.296875 221.753906 518.636719 L 207.15625 477.59375 C 198.660156 453.695312 171.359375 442.386719 148.453125 453.273438 L 109.105469 471.976562 C 108.496094 472.269531 107.894531 472.539062 107.285156 472.792969 C 85.894531 457.0625 66.988281 438.152344 51.257812 416.765625 C 51.515625 416.160156 51.785156 415.550781 52.070312 414.945312 L 70.777344 375.597656 C 81.664062 352.691406 70.355469 325.394531 46.460938 316.894531 L 5.410156 302.300781 C 4.753906 302.066406 4.140625 301.789062 3.507812 301.535156 C 1.550781 288.628906 0.53125 275.421875 0.53125 261.96875 C 0.53125 248.515625 1.550781 235.308594 3.507812 222.402344 C 4.140625 222.148438 4.753906 221.875 5.410156 221.640625 L 46.460938 207.042969 C 70.355469 198.546875 81.664062 171.25 70.777344 148.339844 L 52.070312 108.992188 C 51.785156 108.386719 51.515625 107.777344 51.257812 107.171875 C 66.988281 85.785156 85.894531 66.875 107.285156 51.144531 C 107.894531 51.398438 108.496094 51.671875 109.105469 51.964844 L 148.453125 70.664062 C 171.359375 81.550781 198.660156 70.246094 207.15625 46.347656 L 221.753906 5.300781 C 221.984375 4.644531 222.261719 4.03125 222.515625 3.394531 C 235.417969 1.441406 248.632812 0.417969 262.082031 0.417969 C 275.53125 0.417969 288.742188 1.441406 301.648438 3.394531 C 301.902344 4.03125 302.175781 4.644531 302.410156 5.300781 L 316.878906 45.992188 C 200.53125 49.210938 106.871094 144.855469 106.871094 261.96875 " fill-opacity="1" fill-rule="nonzero"/></g><path fill="#07416b" d="M 398.828125 59.675781 L 415.054688 51.964844 C 415.660156 51.671875 416.269531 51.398438 416.878906 51.144531 C 437.402344 66.242188 455.632812 84.269531 470.976562 104.605469 C 450 84.863281 425.441406 69.65625 398.828125 59.675781 " fill-opacity="1" fill-rule="nonzero"/></g></g></g><g fill="#07416b" fill-opacity="1"><g transform="translate(274.572128, 274.396875)"><g><path d="M 45.90625 -27.15625 L 67.875 -90.5 L 93.09375 -90.5 L 58.828125 0 L 32.96875 0 L -1.296875 -90.5 L 23.921875 -90.5 Z M 45.90625 -27.15625 "/></g></g></g><g fill="#07416b" fill-opacity="1"><g transform="translate(366.375008, 274.396875)"><g><path d="M 50.421875 0 L 3.875 0 L 3.875 -18.09375 L 15.515625 -18.09375 L 15.515625 -72.40625 L 3.875 -72.40625 L 3.875 -90.5 L 50.421875 -90.5 L 50.421875 -72.40625 L 38.78125 -72.40625 L 38.78125 -18.09375 L 50.421875 -18.09375 Z M 50.421875 0 "/></g></g></g><g fill="#07416b" fill-opacity="1"><g transform="translate(420.680932, 274.396875)"><g><path d="M 85.328125 -1.9375 C 65.160156 0.21875 46.628906 1.296875 29.734375 1.296875 C 21.285156 1.296875 15.078125 -0.6875 11.109375 -4.65625 C 7.148438 -8.625 5.171875 -14.828125 5.171875 -23.265625 L 5.171875 -64.640625 C 5.171875 -73.691406 7.21875 -80.265625 11.3125 -84.359375 C 15.40625 -88.453125 21.976562 -90.5 31.03125 -90.5 L 77.578125 -90.5 L 77.578125 -72.40625 L 36.203125 -72.40625 C 31.023438 -72.40625 28.4375 -69.816406 28.4375 -64.640625 L 28.4375 -23.265625 C 28.4375 -21.285156 29.019531 -19.710938 30.1875 -18.546875 C 31.351562 -17.390625 32.925781 -16.8125 34.90625 -16.8125 C 44.820312 -16.8125 53.875 -17.023438 62.0625 -17.453125 L 62.0625 -36.203125 L 45.25 -36.203125 L 45.25 -51.71875 L 85.328125 -51.71875 Z M 85.328125 -1.9375 "/></g></g></g><g fill="#07416b" fill-opacity="1"><g transform="translate(511.190815, 274.396875)"><g><path d="M 86.625 0 L 63.359375 0 L 63.359375 -36.84375 L 31.03125 -36.84375 L 31.03125 0 L 7.75 0 L 7.75 -90.5 L 31.03125 -90.5 L 31.03125 -54.953125 L 63.359375 -54.953125 L 63.359375 -90.5 L 86.625 -90.5 Z M 86.625 0 "/></g></g></g><g fill="#07416b" fill-opacity="1"><g transform="translate(605.579687, 274.396875)"><g><path d="M 23.921875 0 L -1.296875 0 L 32.96875 -90.5 L 58.828125 -90.5 L 93.09375 0 L 67.875 0 L 62.0625 -16.15625 L 29.734375 -16.15625 Z M 35.5625 -32.96875 L 56.25 -32.96875 L 45.90625 -63.359375 Z M 35.5625 -32.96875 "/></g></g></g><g fill="#07416b" fill-opacity="1"><g transform="translate(697.382567, 274.396875)"><g><path d="M 86.625 0 L 62.0625 0 L 31.03125 -54.296875 L 31.03125 0 L 7.75 0 L 7.75 -90.5 L 32.328125 -90.5 L 63.359375 -36.203125 L 63.359375 -90.5 L 86.625 -90.5 Z M 86.625 0 "/></g></g></g><g fill="#07416b" fill-opacity="1"><g transform="translate(791.771439, 274.396875)"><g><path d="M 23.921875 0 L -1.296875 0 L 32.96875 -90.5 L 58.828125 -90.5 L 93.09375 0 L 67.875 0 L 62.0625 -16.15625 L 29.734375 -16.15625 Z M 35.5625 -32.96875 L 56.25 -32.96875 L 45.90625 -63.359375 Z M 35.5625 -32.96875 "/></g></g></g><g fill="#07416b" fill-opacity="1"><g transform="translate(883.574319, 274.396875)"><g><path d="M 86.625 0 L 63.359375 0 L 63.359375 -36.84375 L 31.03125 -36.84375 L 31.03125 0 L 7.75 0 L 7.75 -90.5 L 31.03125 -90.5 L 31.03125 -54.953125 L 63.359375 -54.953125 L 63.359375 -90.5 L 86.625 -90.5 Z M 86.625 0 "/></g></g></g><g fill="#07416b" fill-opacity="1"><g transform="translate(977.963192, 274.396875)"><g><path d="M 23.921875 0 L -1.296875 0 L 32.96875 -90.5 L 58.828125 -90.5 L 93.09375 0 L 67.875 0 L 62.0625 -16.15625 L 29.734375 -16.15625 Z M 35.5625 -32.96875 L 56.25 -32.96875 L 45.90625 -63.359375 Z M 35.5625 -32.96875 "/></g></g></g><g fill="#07416b" fill-opacity="1"><g transform="translate(1069.766038, 274.396875)"><g><path d="M 7.75 -90.5 L 62.0625 -90.5 C 71.113281 -90.5 77.6875 -88.453125 81.78125 -84.359375 C 85.875 -80.265625 87.921875 -73.691406 87.921875 -64.640625 L 87.921875 -53.015625 C 87.921875 -45.859375 86.734375 -40.296875 84.359375 -36.328125 C 81.992188 -32.367188 78.222656 -29.738281 73.046875 -28.4375 L 89.21875 0 L 64 0 L 49.125 -27.15625 L 31.03125 -27.15625 L 31.03125 0 L 7.75 0 Z M 64.640625 -64.640625 C 64.640625 -69.816406 62.054688 -72.40625 56.890625 -72.40625 L 31.03125 -72.40625 L 31.03125 -45.25 L 56.890625 -45.25 C 62.054688 -45.25 64.640625 -47.835938 64.640625 -53.015625 Z M 64.640625 -64.640625 "/></g></g></g><g fill="#07416b" fill-opacity="1"><g transform="translate(1162.861964, 274.396875)"><g><path d="M 51.71875 0 L 28.4375 0 L 28.4375 -72.40625 L 1.296875 -72.40625 L 1.296875 -90.5 L 78.875 -90.5 L 78.875 -72.40625 L 51.71875 -72.40625 Z M 51.71875 0 "/></g></g></g><g fill="#07416b" fill-opacity="1"><g transform="translate(1243.027828, 274.396875)"><g><path d="M 23.921875 0 L -1.296875 0 L 32.96875 -90.5 L 58.828125 -90.5 L 93.09375 0 L 67.875 0 L 62.0625 -16.15625 L 29.734375 -16.15625 Z M 35.5625 -32.96875 L 56.25 -32.96875 L 45.90625 -63.359375 Z M 35.5625 -32.96875 "/></g></g></g><g fill="#07416b" fill-opacity="1"><g transform="translate(357.629115, 345.249709)"><g><path d="M 43.578125 -9.0625 L 43.578125 0 L 5.78125 0 L 5.78125 -48.8125 L 42.671875 -48.8125 L 42.671875 -39.75 L 17.015625 -39.75 L 17.015625 -29.15625 L 39.671875 -29.15625 L 39.671875 -20.359375 L 17.015625 -20.359375 L 17.015625 -9.0625 Z M 43.578125 -9.0625 "/></g></g></g><g fill="#07416b" fill-opacity="1"><g transform="translate(416.339612, 345.249709)"><g><path d="M 50.5625 -48.8125 L 50.5625 0 L 41.28125 0 L 16.953125 -29.640625 L 16.953125 0 L 5.78125 0 L 5.78125 -48.8125 L 15.125 -48.8125 L 39.40625 -19.171875 L 39.40625 -48.8125 Z M 50.5625 -48.8125 "/></g></g></g><g fill="#07416b" fill-opacity="1"><g transform="translate(484.602367, 345.249709)"><g><path d="M 38.765625 -25.171875 L 49.09375 -25.171875 L 49.09375 -5.375 C 46.445312 -3.375 43.378906 -1.835938 39.890625 -0.765625 C 36.398438 0.304688 32.890625 0.84375 29.359375 0.84375 C 24.285156 0.84375 19.726562 -0.238281 15.6875 -2.40625 C 11.644531 -4.570312 8.472656 -7.570312 6.171875 -11.40625 C 3.867188 -15.238281 2.71875 -19.570312 2.71875 -24.40625 C 2.71875 -29.238281 3.867188 -33.570312 6.171875 -37.40625 C 8.472656 -41.25 11.664062 -44.25 15.75 -46.40625 C 19.84375 -48.570312 24.445312 -49.65625 29.5625 -49.65625 C 33.84375 -49.65625 37.722656 -48.929688 41.203125 -47.484375 C 44.691406 -46.046875 47.625 -43.957031 50 -41.21875 L 42.75 -34.515625 C 39.257812 -38.191406 35.050781 -40.03125 30.125 -40.03125 C 27.007812 -40.03125 24.242188 -39.378906 21.828125 -38.078125 C 19.410156 -36.773438 17.523438 -34.9375 16.171875 -32.5625 C 14.828125 -30.195312 14.15625 -27.476562 14.15625 -24.40625 C 14.15625 -21.382812 14.828125 -18.6875 16.171875 -16.3125 C 17.523438 -13.945312 19.398438 -12.097656 21.796875 -10.765625 C 24.191406 -9.441406 26.921875 -8.78125 29.984375 -8.78125 C 33.234375 -8.78125 36.160156 -9.476562 38.765625 -10.875 Z M 38.765625 -25.171875 "/></g></g></g><g fill="#07416b" fill-opacity="1"><g transform="translate(550.285314, 345.249709)"><g><path d="M 5.78125 -48.8125 L 17.078125 -48.8125 L 17.078125 0 L 5.78125 0 Z M 5.78125 -48.8125 "/></g></g></g><g fill="#07416b" fill-opacity="1"><g transform="translate(585.080303, 345.249709)"><g><path d="M 50.5625 -48.8125 L 50.5625 0 L 41.28125 0 L 16.953125 -29.640625 L 16.953125 0 L 5.78125 0 L 5.78125 -48.8125 L 15.125 -48.8125 L 39.40625 -19.171875 L 39.40625 -48.8125 Z M 50.5625 -48.8125 "/></g></g></g><g fill="#07416b" fill-opacity="1"><g transform="translate(653.343059, 345.249709)"><g><path d="M 43.578125 -9.0625 L 43.578125 0 L 5.78125 0 L 5.78125 -48.8125 L 42.671875 -48.8125 L 42.671875 -39.75 L 17.015625 -39.75 L 17.015625 -29.15625 L 39.671875 -29.15625 L 39.671875 -20.359375 L 17.015625 -20.359375 L 17.015625 -9.0625 Z M 43.578125 -9.0625 "/></g></g></g><g fill="#07416b" fill-opacity="1"><g transform="translate(712.053573, 345.249709)"><g><path d="M 43.578125 -9.0625 L 43.578125 0 L 5.78125 0 L 5.78125 -48.8125 L 42.671875 -48.8125 L 42.671875 -39.75 L 17.015625 -39.75 L 17.015625 -29.15625 L 39.671875 -29.15625 L 39.671875 -20.359375 L 17.015625 -20.359375 L 17.015625 -9.0625 Z M 43.578125 -9.0625 "/></g></g></g><g fill="#07416b" fill-opacity="1"><g transform="translate(770.764054, 345.249709)"><g><path d="M 36.890625 0 L 27.46875 -13.59375 L 17.078125 -13.59375 L 17.078125 0 L 5.78125 0 L 5.78125 -48.8125 L 26.921875 -48.8125 C 31.242188 -48.8125 34.992188 -48.085938 38.171875 -46.640625 C 41.359375 -45.203125 43.8125 -43.160156 45.53125 -40.515625 C 47.25 -37.867188 48.109375 -34.726562 48.109375 -31.09375 C 48.109375 -27.46875 47.238281 -24.34375 45.5 -21.71875 C 43.757812 -19.09375 41.285156 -17.082031 38.078125 -15.6875 L 49.015625 0 Z M 36.6875 -31.09375 C 36.6875 -33.84375 35.800781 -35.945312 34.03125 -37.40625 C 32.257812 -38.875 29.679688 -39.609375 26.296875 -39.609375 L 17.078125 -39.609375 L 17.078125 -22.59375 L 26.296875 -22.59375 C 29.679688 -22.59375 32.257812 -23.335938 34.03125 -24.828125 C 35.800781 -26.316406 36.6875 -28.40625 36.6875 -31.09375 Z M 36.6875 -31.09375 "/></g></g></g><g fill="#07416b" fill-opacity="1"><g transform="translate(833.936936, 345.249709)"><g><path d="M 21.828125 0.84375 C 17.960938 0.84375 14.226562 0.320312 10.625 -0.71875 C 7.03125 -1.769531 4.140625 -3.132812 1.953125 -4.8125 L 5.78125 -13.3125 C 7.875 -11.78125 10.363281 -10.550781 13.25 -9.625 C 16.132812 -8.695312 19.015625 -8.234375 21.890625 -8.234375 C 25.097656 -8.234375 27.46875 -8.707031 29 -9.65625 C 30.539062 -10.613281 31.3125 -11.878906 31.3125 -13.453125 C 31.3125 -14.617188 30.859375 -15.582031 29.953125 -16.34375 C 29.046875 -17.113281 27.882812 -17.726562 26.46875 -18.1875 C 25.050781 -18.65625 23.132812 -19.171875 20.71875 -19.734375 C 16.988281 -20.617188 13.9375 -21.5 11.5625 -22.375 C 9.195312 -23.257812 7.164062 -24.675781 5.46875 -26.625 C 3.769531 -28.582031 2.921875 -31.191406 2.921875 -34.453125 C 2.921875 -37.285156 3.6875 -39.851562 5.21875 -42.15625 C 6.757812 -44.457031 9.078125 -46.28125 12.171875 -47.625 C 15.265625 -48.976562 19.039062 -49.65625 23.5 -49.65625 C 26.613281 -49.65625 29.65625 -49.28125 32.625 -48.53125 C 35.601562 -47.789062 38.210938 -46.722656 40.453125 -45.328125 L 36.953125 -36.75 C 32.441406 -39.300781 27.9375 -40.578125 23.4375 -40.578125 C 20.269531 -40.578125 17.929688 -40.066406 16.421875 -39.046875 C 14.910156 -38.023438 14.15625 -36.675781 14.15625 -35 C 14.15625 -33.332031 15.023438 -32.09375 16.765625 -31.28125 C 18.515625 -30.46875 21.175781 -29.664062 24.75 -28.875 C 28.46875 -27.988281 31.515625 -27.101562 33.890625 -26.21875 C 36.265625 -25.332031 38.296875 -23.9375 39.984375 -22.03125 C 41.679688 -20.125 42.53125 -17.546875 42.53125 -14.296875 C 42.53125 -11.503906 41.75 -8.957031 40.1875 -6.65625 C 38.632812 -4.351562 36.300781 -2.523438 33.1875 -1.171875 C 30.070312 0.171875 26.285156 0.84375 21.828125 0.84375 Z M 21.828125 0.84375 "/></g></g></g></g></g></svg>