<svg xmlns="http://www.w3.org/2000/svg" version="1.1" xmlns:xlink="http://www.w3.org/1999/xlink" width="1000" height="1000"><metadata><rdf:RDF xmlns:rdf="http://www.w3.org/1999/02/22-rdf-syntax-ns#" xmlns:dc="http://purl.org/dc/elements/1.1/"><rdf:Description><dc:creator>RealFaviconGenerator</dc:creator><dc:source>https://realfavicongenerator.net</dc:source></rdf:Description></rdf:RDF></metadata><g clip-path="url(#SvgjsClipPath1029)"><rect width="1000" height="1000" fill="#ffffff"></rect><g transform="matrix(1,0,0,1,0,75)"><svg xmlns="http://www.w3.org/2000/svg" version="1" xmlns:xlink="http://www.w3.org/1999/xlink" width="1000" zoomAndPan="magnify" viewBox="0 0 750 637.499986" height="850" preserveAspectRatio="xMidYMid meet"><defs><g></g><clipPath id="713998962d"><path d="M 0.292969 0 L 749.707031 0 L 749.707031 637 L 0.292969 637 Z M 0.292969 0 " clip-rule="nonzero"></path></clipPath><clipPath id="e212c3b284"><path d="M 0.992188 0.976562 L 641.292969 0.976562 L 641.292969 470.246094 L 0.992188 470.246094 Z M 0.992188 0.976562 " clip-rule="nonzero"></path></clipPath><clipPath id="99c9f5e3e4"><path d="M 106 51 L 641.292969 51 L 641.292969 420 L 106 420 Z M 106 51 " clip-rule="nonzero"></path></clipPath><clipPath id="1896717e33"><path d="M 0.992188 0.976562 L 285 0.976562 L 285 470 L 0.992188 470 Z M 0.992188 0.976562 " clip-rule="nonzero"></path></clipPath><clipPath id="27dd5c0167"><rect x="0" width="642" y="0" height="471"></rect></clipPath><clipPath id="0dc3e02cee"><rect x="0" width="642" y="0" height="471"></rect></clipPath><clipPath id="SvgjsClipPath1029"><rect width="1000" height="1000" x="0" y="0" rx="500" ry="500"></rect></clipPath></defs><g clip-path="url(#713998962d)"><path fill="#ffffff" d="M 0.292969 0 L 749.707031 0 L 749.707031 637 L 0.292969 637 Z M 0.292969 0 " fill-opacity="1" fill-rule="nonzero"></path><path fill="#ffffff" d="M 0.292969 0 L 749.707031 0 L 749.707031 637 L 0.292969 637 Z M 0.292969 0 " fill-opacity="1" fill-rule="nonzero"></path></g><g transform="matrix(1, 0, 0, 1, 63, 83)"><g clip-path="url(#0dc3e02cee)"><g clip-path="url(#e212c3b284)"><g transform="matrix(1, 0, 0, 1, -0.000000000000007105, -0.000000000000014211)"><g clip-path="url(#27dd5c0167)"><path fill="#07416b" d="M 294.710938 355.46875 C 292.332031 355.605469 289.945312 355.699219 287.535156 355.699219 C 221.132812 355.699219 167.304688 301.871094 167.304688 235.472656 C 167.304688 169.074219 221.132812 115.242188 287.535156 115.242188 C 289.945312 115.242188 292.332031 115.339844 294.710938 115.476562 C 231.675781 119.214844 181.707031 171.496094 181.707031 235.472656 C 181.707031 299.449219 231.675781 351.726562 294.710938 355.46875 " fill-opacity="1" fill-rule="nonzero"></path><g clip-path="url(#99c9f5e3e4)"><path fill="#00adef" d="M 386.9375 131.722656 C 361.566406 108.019531 327.515625 93.492188 290.0625 93.492188 C 212.917969 93.492188 150.152344 155.011719 148.132812 231.664062 C 148.097656 232.929688 148.082031 234.199219 148.082031 235.46875 C 148.082031 313.882812 211.648438 377.449219 290.0625 377.449219 C 327.515625 377.449219 361.566406 362.921875 386.9375 339.222656 L 523.167969 339.222656 L 429.238281 355.246094 C 395.5625 394.34375 345.707031 419.09375 290.0625 419.09375 C 188.644531 419.09375 106.433594 336.886719 106.433594 235.46875 C 106.433594 134.058594 188.644531 51.847656 290.0625 51.847656 C 345.707031 51.847656 395.5625 76.601562 429.238281 115.695312 L 641.316406 131.722656 L 386.9375 131.722656 " fill-opacity="1" fill-rule="nonzero"></path></g><path fill="#07416b" d="M 422.804688 376.542969 C 409.042969 394.785156 392.691406 410.957031 374.285156 424.492188 C 373.738281 424.265625 373.191406 424.023438 372.648438 423.761719 L 358.101562 416.84375 C 381.964844 407.890625 403.988281 394.253906 422.804688 376.542969 " fill-opacity="1" fill-rule="nonzero"></path><g clip-path="url(#1896717e33)"><path fill="#07416b" d="M 96.335938 235.472656 C 96.335938 340.46875 180.308594 426.226562 284.625 429.113281 L 271.652344 465.59375 C 271.445312 466.1875 271.199219 466.738281 270.96875 467.304688 C 259.398438 469.058594 247.554688 469.976562 235.496094 469.976562 C 223.433594 469.976562 211.589844 469.058594 200.023438 467.304688 C 199.792969 466.738281 199.546875 466.1875 199.335938 465.59375 L 186.25 428.796875 C 178.632812 407.367188 154.15625 397.230469 133.617188 406.992188 L 98.339844 423.761719 C 97.792969 424.023438 97.253906 424.265625 96.707031 424.492188 C 77.53125 410.390625 60.578125 393.433594 46.472656 374.261719 C 46.703125 373.71875 46.945312 373.171875 47.203125 372.628906 L 63.976562 337.347656 C 73.738281 316.808594 63.597656 292.335938 42.171875 284.71875 L 5.371094 271.632812 C 4.78125 271.421875 4.230469 271.175781 3.664062 270.945312 C 1.90625 259.375 0.992188 247.535156 0.992188 235.472656 C 0.992188 223.410156 1.90625 211.570312 3.664062 199.996094 C 4.230469 199.769531 4.78125 199.523438 5.371094 199.3125 L 42.171875 186.226562 C 63.597656 178.605469 73.738281 154.132812 63.976562 133.59375 L 47.203125 98.316406 C 46.945312 97.773438 46.703125 97.226562 46.472656 96.683594 C 60.578125 77.507812 77.53125 60.554688 96.707031 46.453125 C 97.253906 46.679688 97.792969 46.921875 98.339844 47.183594 L 133.617188 63.953125 C 154.15625 73.714844 178.632812 63.574219 186.25 42.148438 L 199.335938 5.347656 C 199.546875 4.757812 199.792969 4.207031 200.023438 3.636719 C 211.589844 1.886719 223.433594 0.96875 235.496094 0.96875 C 247.554688 0.96875 259.398438 1.886719 270.96875 3.636719 C 271.199219 4.207031 271.445312 4.757812 271.652344 5.347656 L 284.625 41.832031 C 180.308594 44.71875 96.335938 130.46875 96.335938 235.472656 " fill-opacity="1" fill-rule="nonzero"></path></g><path fill="#07416b" d="M 358.101562 54.101562 L 372.648438 47.183594 C 373.191406 46.921875 373.738281 46.679688 374.285156 46.453125 C 392.6875 59.984375 409.03125 76.152344 422.789062 94.382812 C 403.976562 76.683594 381.960938 63.050781 358.101562 54.101562 " fill-opacity="1" fill-rule="nonzero"></path></g></g></g><g fill="#07416b" fill-opacity="1"><g transform="translate(242.703773, 285.093747)"><g><path d="M 55.5625 -32.875 L 82.171875 -109.5625 L 112.6875 -109.5625 L 71.21875 0 L 39.90625 0 L -1.5625 -109.5625 L 28.953125 -109.5625 Z M 55.5625 -32.875 "></path></g></g></g><g fill="#07416b" fill-opacity="1"><g transform="translate(353.818127, 285.093747)"><g><path d="M 96.25 0 L 9.390625 0 L 9.390625 -109.5625 L 96.25 -109.5625 L 96.25 -87.65625 L 37.5625 -87.65625 L 37.5625 -66.515625 L 83.734375 -66.515625 L 83.734375 -44.609375 L 37.5625 -44.609375 L 37.5625 -21.90625 L 96.25 -21.90625 Z M 96.25 0 "></path></g></g></g></g></g></svg></g></g></svg>